<svg width="70" height="45" viewBox="0 0 70 45" fill="none" xmlns="http://www.w3.org/2000/svg">
<path d="M3.73461 21.9998H0.243164L8.08828 0.181641H11.8884L19.7335 21.9998H16.2421L10.0788 4.14471H9.90851L3.73461 21.9998ZM4.32007 13.4558H15.646V16.2257H4.32007V13.4558Z" fill="black"/>
<path d="M3.73461 44.9998H0.243164L8.08828 23.1816H11.8884L19.7335 44.9998H16.2421L10.0788 27.1447H9.90851L3.73461 44.9998ZM4.32007 36.4558H15.646V39.2257H4.32007V36.4558Z" fill="black"/>
<path d="M23.4115 44.9998V23.1816H26.7007V42.166H36.579V44.9998H23.4115Z" fill="black"/>
<path d="M38.3992 44.9998V23.1816H41.6884V42.166H51.5666V44.9998H38.3992Z" fill="black"/>
<path d="M50.9039 23.1816H54.6402L60.3351 33.1H60.5693L66.2642 23.1816H70.0004L62.0915 36.4345V44.9998H58.8129V36.4345L50.9039 23.1816Z" fill="black"/>
<path d="M16.5375 3.01545V0.181641H33.4093V3.01545H26.6073V21.9998H23.3288V3.01545H16.5375Z" fill="black"/>
<path d="M48.8284 0.181641H52.1282V14.5318C52.1282 16.0588 51.7699 17.4118 51.0531 18.5907C50.3364 19.7626 49.3287 20.6859 48.03 21.3606C46.7314 22.0282 45.2092 22.362 43.4635 22.362C41.7249 22.362 40.2062 22.0282 38.9076 21.3606C37.6089 20.6859 36.6012 19.7626 35.8845 18.5907C35.1678 17.4118 34.8094 16.0588 34.8094 14.5318V0.181641H38.0986V14.2654C38.0986 15.2527 38.315 16.1298 38.7479 16.8968C39.1879 17.6639 39.8088 18.2676 40.6107 18.7079C41.4126 19.1412 42.3635 19.3578 43.4635 19.3578C44.5705 19.3578 45.525 19.1412 46.3269 18.7079C47.1359 18.2676 47.7533 17.6639 48.1791 16.8968C48.612 16.1298 48.8284 15.2527 48.8284 14.2654V0.181641Z" fill="black"/>
<path d="M53.6855 21.9998V0.181641H61.4561C63.145 0.181641 64.5466 0.472834 65.6607 1.05522C66.7819 1.63761 67.6193 2.44371 68.1728 3.47354C68.7264 4.49627 69.0031 5.6788 69.0031 7.02113C69.0031 8.35635 68.7228 9.53178 68.1622 10.5474C67.6087 11.5559 66.7713 12.3407 65.6501 12.9018C64.5359 13.4629 63.1344 13.7434 61.4454 13.7434H55.5589V10.9096H61.1474C62.2118 10.9096 63.0776 10.7569 63.7447 10.4515C64.4188 10.1461 64.912 9.70224 65.2243 9.11985C65.5365 8.53746 65.6926 7.83789 65.6926 7.02113C65.6926 6.19726 65.533 5.48349 65.2136 4.87979C64.9014 4.2761 64.4082 3.81445 63.734 3.49485C63.067 3.16815 62.1905 3.00479 61.1048 3.00479H56.9747V21.9998H53.6855ZM64.4472 12.1561L69.8334 21.9998H66.0865L60.8067 12.1561H64.4472Z" fill="black"/>
</svg>
