<svg width="28" height="35" viewBox="0 0 28 35" fill="none" xmlns="http://www.w3.org/2000/svg">
<path d="M25.8462 5.39305H19.4121V3.28978C19.4121 1.47547 17.9631 0 16.1813 0H11.886C10.1042 0 8.65523 1.47547 8.65523 3.28978V5.39305H2.15385C0.964384 5.39305 0 6.37505 0 7.58624V32.8068C0 34.018 0.964384 35 2.15385 35H25.8462C27.0356 35 28 34.018 28 32.8068V7.58624C28 6.37505 27.0356 5.39305 25.8462 5.39305H25.8462ZM10.8091 3.28978C10.8091 2.68446 11.2916 2.19319 11.886 2.19319H16.1813C16.7758 2.19319 17.2583 2.68446 17.2583 3.28978V5.39305H10.8091V3.28978ZM25.8462 32.8068H2.15388V7.58624H8.65526V9.84248C8.65526 9.84248 8.62673 10.9379 9.72576 10.9379C10.9373 10.9379 10.8091 9.84248 10.8091 9.84248V7.58624H17.2583V9.84248C17.2583 9.84248 17.1867 10.9435 18.3309 10.9435C19.4078 10.9435 19.4121 9.84248 19.4121 9.84248V7.58624H25.8462V32.8068H25.8462Z" fill="black"/>
</svg>
