<svg width="37" height="32" viewBox="0 0 37 32" fill="none" xmlns="http://www.w3.org/2000/svg">
<path d="M37 9.99996C37 15.0999 33.9681 20.3333 27.9898 25.5666C25.2752 27.941 22.3194 30.0407 19.1681 31.8332C18.9633 31.9426 18.7336 32 18.5 32C18.2664 32 18.0367 31.9426 17.8319 31.8332C17.0954 31.4332 0 21.9833 0 9.99996C0 7.90115 0.678717 5.85553 1.94001 4.15288C3.2013 2.45023 4.98123 1.17687 7.02766 0.513165C9.07409 -0.150539 11.2833 -0.170936 13.3423 0.454863C15.4013 1.08066 17.2057 2.32093 18.5 3.99999C19.7943 2.32093 21.5987 1.08066 23.6577 0.454863C25.7167 -0.170936 27.9259 -0.150539 29.9723 0.513165C32.0188 1.17687 33.7987 2.45023 35.06 4.15288C36.3213 5.85553 37 7.90115 37 9.99996Z" fill="#87BCDF"/>
<path d="M37 9.99996C37 15.0999 33.9681 20.3333 27.9898 25.5666C25.2752 27.941 22.3194 30.0407 19.1681 31.8332C18.9633 31.9426 18.7336 32 18.5 32C18.2664 32 18.0367 31.9426 17.8319 31.8332C17.0954 31.4332 0 21.9833 0 9.99996C0 7.90115 0.678717 5.85553 1.94001 4.15288C3.2013 2.45023 4.98123 1.17687 7.02766 0.513165C9.07409 -0.150539 11.2833 -0.170936 13.3423 0.454863C15.4013 1.08066 17.2057 2.32093 18.5 3.99999C19.7943 2.32093 21.5987 1.08066 23.6577 0.454863C25.7167 -0.170936 27.9259 -0.150539 29.9723 0.513165C32.0188 1.17687 33.7987 2.45023 35.06 4.15288C36.3213 5.85553 37 7.90115 37 9.99996Z" fill="#505050" fill-opacity="0.2"/>
</svg>
