<svg class="background" xmlns="http://www.w3.org/2000/svg" width="26" height="24" fill="none"><path fill="#87BCDF" d="M26 7.5c0 3.825-2.13 7.75-6.331 11.675a37.93 37.93 0 0 1-6.2 4.7.946.946 0 0 1-.938 0C12.013 23.575 0 16.487 0 7.5c0-1.574.477-3.108 1.363-4.385A7.247 7.247 0 0 1 4.938.385 6.968 6.968 0 0 1 9.376.34 7.233 7.233 0 0 1 13 3 7.233 7.233 0 0 1 16.624.341c1.447-.47 3-.454 4.438.044a7.247 7.247 0 0 1 3.575 2.73A7.697 7.697 0 0 1 26 7.5Z"/><path fill="#505050" fill-opacity=".2" d="M26 7.5c0 3.825-2.13 7.75-6.331 11.675a37.93 37.93 0 0 1-6.2 4.7.946.946 0 0 1-.938 0C12.013 23.575 0 16.487 0 7.5c0-1.574.477-3.108 1.363-4.385A7.247 7.247 0 0 1 4.938.385 6.968 6.968 0 0 1 9.376.34 7.233 7.233 0 0 1 13 3 7.233 7.233 0 0 1 16.624.341c1.447-.47 3-.454 4.438.044a7.247 7.247 0 0 1 3.575 2.73A7.697 7.697 0 0 1 26 7.5Z"/></svg>