<svg class="outline" xmlns="http://www.w3.org/2000/svg" width="26" height="24" fill="none"><path fill="#87BCDF" d="M13 24a.912.912 0 0 1-.47-.125C12.014 23.575 0 16.488 0 7.5c0-1.574.477-3.108 1.363-4.385A7.247 7.247 0 0 1 4.938.385 6.968 6.968 0 0 1 9.376.34 7.233 7.233 0 0 1 13 3 7.233 7.233 0 0 1 16.624.341c1.447-.47 3-.454 4.438.044a7.247 7.247 0 0 1 3.575 2.73A7.697 7.697 0 0 1 26 7.5c0 3.825-2.13 7.75-6.331 11.675a37.936 37.936 0 0 1-6.2 4.7A.912.912 0 0 1 13 24ZM7.222 2c-1.404 0-2.752.58-3.745 1.61A5.61 5.61 0 0 0 1.926 7.5c0 6.9 8.907 12.962 11.074 14.337C15.167 20.462 24.074 14.4 24.074 7.5a5.632 5.632 0 0 0-1.197-3.488 5.266 5.266 0 0 0-3.056-1.91 5.124 5.124 0 0 0-3.528.536 5.43 5.43 0 0 0-2.402 2.737.993.993 0 0 1-.355.45.938.938 0 0 1-1.072 0 .993.993 0 0 1-.355-.45 5.435 5.435 0 0 0-1.95-2.459c-.87-.6-1.892-.92-2.937-.916Z"/><path fill="#505050" fill-opacity=".2" d="M13 24a.912.912 0 0 1-.47-.125C12.014 23.575 0 16.488 0 7.5c0-1.574.477-3.108 1.363-4.385A7.247 7.247 0 0 1 4.938.385 6.968 6.968 0 0 1 9.376.34 7.233 7.233 0 0 1 13 3 7.233 7.233 0 0 1 16.624.341c1.447-.47 3-.454 4.438.044a7.247 7.247 0 0 1 3.575 2.73A7.697 7.697 0 0 1 26 7.5c0 3.825-2.13 7.75-6.331 11.675a37.936 37.936 0 0 1-6.2 4.7A.912.912 0 0 1 13 24ZM7.222 2c-1.404 0-2.752.58-3.745 1.61A5.61 5.61 0 0 0 1.926 7.5c0 6.9 8.907 12.962 11.074 14.337C15.167 20.462 24.074 14.4 24.074 7.5a5.632 5.632 0 0 0-1.197-3.488 5.266 5.266 0 0 0-3.056-1.91 5.124 5.124 0 0 0-3.528.536 5.43 5.43 0 0 0-2.402 2.737.993.993 0 0 1-.355.45.938.938 0 0 1-1.072 0 .993.993 0 0 1-.355-.45 5.435 5.435 0 0 0-1.95-2.459c-.87-.6-1.892-.92-2.937-.916Z"/></svg>