<svg width="35" height="35" viewBox="0 0 35 35" fill="none" xmlns="http://www.w3.org/2000/svg">
<path d="M35 33.1695L25.2233 23.3928C27.5727 20.5723 28.7443 16.9546 28.4943 13.2923C28.2443 9.63004 26.592 6.20512 23.8811 3.73005C21.1703 1.25497 17.6095 -0.0797015 13.9397 0.00368461C10.2698 0.0870707 6.7734 1.58209 4.17775 4.17775C1.58209 6.7734 0.0870707 10.2698 0.00368461 13.9397C-0.0797015 17.6095 1.25497 21.1703 3.73005 23.8811C6.20512 26.592 9.63004 28.2443 13.2923 28.4943C16.9546 28.7443 20.5723 27.5727 23.3928 25.2233L33.1695 35L35 33.1695ZM2.63546 14.2867C2.63546 11.9823 3.31879 9.72965 4.59905 7.81361C5.8793 5.89758 7.69897 4.40421 9.82796 3.52236C11.9569 2.6405 14.2996 2.40977 16.5597 2.85933C18.8199 3.3089 20.8959 4.41857 22.5254 6.04803C24.1548 7.67748 25.2645 9.75353 25.7141 12.0136C26.1636 14.2738 25.9329 16.6164 25.051 18.7454C24.1692 20.8744 22.6758 22.6941 20.7598 23.9743C18.8437 25.2546 16.5911 25.9379 14.2867 25.9379C11.1976 25.9345 8.2361 24.7059 6.05181 22.5216C3.86752 20.3373 2.63888 17.3757 2.63546 14.2867Z" fill="black"/>
</svg>
