<svg width="26" height="21" viewBox="0 0 26 21" fill="none" xmlns="http://www.w3.org/2000/svg">
<path d="M17.225 9.69692L11.6536 5.8613C11.5126 5.76878 11.3507 5.7157 11.1838 5.7073C11.017 5.69889 10.8508 5.73544 10.7018 5.81336C10.5533 5.8961 10.4295 6.01904 10.3436 6.16898C10.2577 6.31892 10.213 6.49018 10.2143 6.66439V14.3356C10.213 14.5098 10.2577 14.6811 10.3436 14.831C10.4295 14.981 10.5533 15.1039 10.7018 15.1866C10.8387 15.2575 10.9897 15.2944 11.1429 15.2945C11.3238 15.2925 11.5006 15.2386 11.6536 15.1387L17.225 11.3031C17.3543 11.2159 17.4606 11.0969 17.5341 10.9566C17.6077 10.8164 17.6462 10.6595 17.6462 10.5C17.6462 10.3405 17.6077 10.1836 17.5341 10.0434C17.4606 9.90313 17.3543 9.78406 17.225 9.69692ZM12.0714 12.5497V8.45034L15.0429 10.5L12.0714 12.5497ZM25.3384 3.52397C25.2317 3.08207 25.0229 2.67347 24.7297 2.33319C24.4366 1.99291 24.0679 1.7311 23.6554 1.57021C19.6857 -0.0119838 13.3482 2.67026e-06 13 2.67026e-06C12.6518 2.67026e-06 6.31429 -0.0119838 2.34464 1.57021C1.93206 1.7311 1.5634 1.99291 1.27027 2.33319C0.977147 2.67347 0.768292 3.08207 0.661607 3.52397C0.359822 4.71062 0 6.89212 0 10.5C0 14.1079 0.359822 16.2894 0.661607 17.476C0.768292 17.9179 0.977147 18.3265 1.27027 18.6668C1.5634 19.0071 1.93206 19.2689 2.34464 19.4298C6.15179 20.9521 12.1179 21 12.9187 21H13.0812C13.8821 21 19.8482 20.9521 23.6554 19.4298C24.0679 19.2689 24.4366 19.0071 24.7297 18.6668C25.0229 18.3265 25.2317 17.9179 25.3384 17.476C25.6402 16.2894 26 14.1079 26 10.5C26 6.89212 25.6402 4.71062 25.3384 3.52397ZM23.5393 16.9966C23.505 17.1416 23.4376 17.276 23.3427 17.3887C23.2478 17.5013 23.1281 17.5888 22.9937 17.6438C19.3143 19.1062 13.0696 19.0822 13 19.0822H12.9884C12.9304 19.0822 6.68571 19.1062 3.00625 17.6438C2.87188 17.5888 2.75224 17.5013 2.65733 17.3887C2.56242 17.276 2.495 17.1416 2.46071 16.9966C2.18214 15.9058 1.85714 13.9041 1.85714 10.5C1.85714 7.09589 2.18214 5.09418 2.46071 4.00343C2.495 3.8584 2.56242 3.72396 2.65733 3.61135C2.75224 3.49874 2.87188 3.41124 3.00625 3.35617C6.54643 1.95377 12.4893 1.91781 12.9768 1.91781H13C13.0696 1.91781 19.3143 1.89384 22.9937 3.35617C23.1281 3.41124 23.2478 3.49874 23.3427 3.61135C23.4376 3.72396 23.505 3.8584 23.5393 4.00343C23.8179 5.09418 24.1429 7.09589 24.1429 10.5C24.1429 13.9041 23.8179 15.9058 23.5393 16.9966Z" fill="black"/>
</svg>
